<?xml version="1.0" encoding="iso-8859-1"?>
<!-- Generator: Adobe Illustrator 19.0.0, SVG Export Plug-In . SVG Version: 6.00 Build 0)  -->
<svg version="1.1" id="Capa_1" xmlns="http://www.w3.org/2000/svg" xmlns:xlink="http://www.w3.org/1999/xlink" x="0px" y="0px"
	 viewBox="0 0 512 512" style="enable-background:new 0 0 512 512;" xml:space="preserve">
<polygon style="fill:#384949;" points="506.283,300 506.283,512 26.283,512 26.283,300 56.283,270 472.383,270 "/>
<polygon style="fill:#293939;" points="506.283,300 506.283,512 266.283,512 266.283,270 472.383,270 "/>
<g>
	<rect x="86.28" y="361" style="fill:#DFD7D5;" width="210" height="30"/>
	<rect x="86.28" y="421" style="fill:#DFD7D5;" width="210" height="30"/>
</g>
<rect x="266.28" y="421" style="fill:#D2C5C2;" width="30" height="30"/>
<polygon style="fill:#293939;" points="455.072,210 395.072,270 407.494,300 506.283,300 506.283,201.211 "/>
<path style="fill:#C4B3AF;" d="M407.494,180l-72.422,30l-60,60l12.422,30c3.915,0,124.34,0,120,0l98.789-98.789V180
	C502.579,180,402.892,180,407.494,180z"/>
<path style="fill:#384949;" d="M407.584,180l-120,120c0,0-8.701,0-21.301,0h-98.699l-12.601-30l60-60l51.301-21.301l21.3-8.699
	C287.584,180,403.083,180,407.584,180z"/>
<path style="fill:#293939;" d="M407.584,180l-120,120c0,0-8.701,0-21.301,0V188.699L287.584,180
	C287.584,180,403.083,180,407.584,180z"/>
<path style="fill:#EDE9E8;" d="M287.584,180l-21.301,21.299L167.584,300c0,0-116.1,0-120,0l8.699-21.301L94.983,210l72.601-30
	c0,0,64.199,0,98.699,0H287.584z"/>
<path style="fill:#384949;" d="M26.283,180c0,4.466,0,126.126,0,120h21.211l120-120C159.509,180,22.953,180,26.283,180z"/>
<polygon style="fill:#C4B3AF;" points="266.283,180 287.584,180 266.283,201.299 "/>
<polygon style="fill:#DFD7D5;" points="119.546,72.648 5.717,95.805 25.774,194.468 82.55,178.739 134.319,93.54 "/>
<path style="fill:#384949;" d="M237.147,48.725c-41.886,8.521-121.813,24.779-117.601,23.923l-93.772,121.82l3.849,18.935
	c11.637-2.367,100.09-20.361,95.753-19.479l74.771-39.106l51.771-85.201L237.147,48.725z"/>
<g>
	<path style="fill:#DFD7D5;" d="M369.483,45.708l-51.601,85.199l-51.599,26.7l-23.101,12.301c0,0-113.399,23.099-117.9,24
		L237.184,48.707c2.399-0.601,13.799-2.699,29.099-6c26.4-5.4,64.799-13.2,88.5-17.999L369.483,45.708z"/>
	<path style="fill:#DFD7D5;" d="M317.882,130.907l-51.599,26.7v-114.9c26.4-5.4,64.799-13.2,88.5-17.999l14.7,21L317.882,130.907z"
		/>
</g>
<path style="fill:#384949;" d="M472.383,1.008l-19.2,64.799l-17.699,41.1l-75,39.3c0,0-60,12.001-94.2,18.9
	c-12.9,2.701-22.2,4.501-23.401,4.801l23.401-30.3l88.5-114.901C360.784,23.508,433.083,8.807,472.383,1.008z"/>
<path style="fill:#293939;" d="M472.383,1.008l-19.2,64.799l-17.699,41.1l-75,39.3c0,0-60,12.001-94.2,18.9v-25.499l88.5-114.901
	C360.784,23.508,433.083,8.807,472.383,1.008z"/>
<path style="fill:#DFD7D5;" d="M476.063,0.122l-3.732,0.76L360.564,146.083c8.686-1.767,144.85-29.465,139.435-28.363
	C499.066,113.136,475.163-4.301,476.063,0.122z"/>
<rect x="266.28" y="361" style="fill:#D2C5C2;" width="30" height="30"/>
<g>
</g>
<g>
</g>
<g>
</g>
<g>
</g>
<g>
</g>
<g>
</g>
<g>
</g>
<g>
</g>
<g>
</g>
<g>
</g>
<g>
</g>
<g>
</g>
<g>
</g>
<g>
</g>
<g>
</g>
</svg>
