<?xml version="1.0" encoding="iso-8859-1"?>
<!-- Generator: Adobe Illustrator 19.0.0, SVG Export Plug-In . SVG Version: 6.00 Build 0)  -->
<svg version="1.1" id="Capa_1" xmlns="http://www.w3.org/2000/svg" xmlns:xlink="http://www.w3.org/1999/xlink" x="0px" y="0px"
	 viewBox="0 0 511.975 511.975" style="enable-background:new 0 0 511.975 511.975;" xml:space="preserve">
<g>
	<path style="fill:#FDFED2;" d="M345.347,26.416c-14.585-25.262-46.88-33.914-72.142-19.329c-3.16,1.822-6.117,3.97-8.837,6.399
		L188.08,171.651l180.443,31.538L345.347,26.416z"/>
	<path style="fill:#FDFED2;" d="M417.251,79.924c23.458-7.939,48.904,4.639,56.844,28.096c6.628,19.593-1.003,41.185-18.484,52.258
		l-53.341,34.847l-38.051-80.689L417.251,79.924z"/>
</g>
<g>
	<path style="fill:#FBD836;" d="M237.961,104.905c28.765-4.832,48.165-32.075,43.324-60.84C276.453,15.299,249.21-4.1,220.445,0.741
		c-14.743,2.482-27.753,11.091-35.781,23.704c-25.412-14.321-57.618-5.325-71.939,20.086c-6.249,11.091-8.283,24.065-5.721,36.537
		l9.198,52.443L237.961,104.905z"/>
	<path style="fill:#FBD836;" d="M428.764,149.179c7.094-20.755,0.643-43.738-16.231-57.759c6.83-28.352-10.615-56.879-38.967-63.718
		s-56.879,10.615-63.718,38.967c-0.995,4.111-1.488,8.327-1.47,12.552c0,1.021,0.114,2.016,0.167,3.019
		c-11.003,5.906-15.131,19.611-9.225,30.622c5.281,9.841,16.953,14.347,27.471,10.615c-0.511,2.825-0.775,5.686-0.81,8.556
		c-0.009,6.795,1.294,13.529,3.846,19.822l15.518,51.325L428.764,149.179z"/>
	<path style="fill:#FBD836;" d="M235.242,106.515c21.459-7.429,44.873,3.935,52.311,25.394c1.496,4.313,2.262,8.846,2.262,13.406
		l-34.249,72.547l-77.018-38.139L235.242,106.515z"/>
</g>
<g>
	<path style="fill:#C2A521;" d="M393.468,79.959h-17.604c0.009-7.059-5.713-12.798-12.772-12.807
		c-7.059-0.009-12.798,5.713-12.807,12.772c0,0.009,0,0.018,0,0.026h-17.604c-0.009-16.786,13.582-30.402,30.367-30.42
		c16.786-0.009,30.402,13.582,30.42,30.367C393.468,79.933,393.468,79.951,393.468,79.959z"/>
	<path style="fill:#C2A521;" d="M257.564,52.453h-17.604c-0.009-7.059-5.739-12.781-12.798-12.781V22.068
		C243.947,22.086,257.546,35.676,257.564,52.453z"/>
</g>
<path style="fill:#FDFED2;" d="M228.939,152.77c16.31-24.179,9.938-57.002-14.251-73.313s-57.002-9.938-73.313,14.251
	c-2.79,4.137-4.982,8.644-6.505,13.397c-10.73-20.183-33.29-31.098-55.779-26.987c-4.964-11.531-18.326-16.847-29.848-11.883
	S32.406,86.561,37.371,98.092c1.232,2.852,3.028,5.422,5.29,7.552c-9.85,16.962-9.453,37.99,1.012,54.573l89.403,57.654
	L228.939,152.77z"/>
<path style="fill:#F09221;" d="M35.513,167.25L35.513,167.25c29.135-29.17,76.402-29.188,105.572-0.053
	c0.018,0.018,0.035,0.035,0.053,0.053l0,0c29.144-29.135,76.393-29.135,105.537,0l0,0l0,0c29.135-29.17,76.402-29.188,105.572-0.053
	c0.018,0.018,0.035,0.035,0.053,0.053l0,0l0.088-0.106c29.144-29.117,76.367-29.117,105.511,0l0.114,0.106l-35.208,343.282H79.524
	L35.513,167.25z"/>
<g>
	
		<rect x="146.591" y="380.351" transform="matrix(-0.9987 0.0513 -0.0513 -0.9987 333.4358 882.4616)" style="fill:#B86F16;" width="17.604" height="130.317"/>
	
		<rect x="135.146" y="167.18" transform="matrix(-0.9987 0.0513 -0.0513 -0.9987 299.1094 436.8955)" style="fill:#B86F16;" width="17.604" height="110.213"/>
	
		<rect x="271.894" y="435.597" transform="matrix(-0.0518 0.9987 -0.9987 -0.0518 799.4499 129.7399)" style="fill:#B86F16;" width="132.477" height="17.605"/>
	
		<rect x="293.574" y="214.343" transform="matrix(-0.0518 0.9987 -0.9987 -0.0518 590.4968 -114.3715)" style="fill:#B86F16;" width="111.941" height="17.605"/>
	<rect x="237.909" y="168.737" style="fill:#B86F16;" width="17.604" height="86.657"/>
	<rect x="237.909" y="398.648" style="fill:#B86F16;" width="17.604" height="113.327"/>
</g>
<path style="fill:#C2A521;" d="M215.472,125.237h-17.604c0.185-7.059-5.387-12.939-12.446-13.124
	c-7.059-0.185-12.939,5.387-13.124,12.446c-0.009,0.22-0.009,0.449,0,0.669h-17.604c-0.282-16.786,13.089-30.622,29.874-30.904
	s30.622,13.089,30.904,29.874C215.481,124.551,215.481,124.894,215.472,125.237z"/>
<path style="fill:#B86F16;" d="M246.763,404.906c-83.91,0-149.636-34.029-149.636-77.458s65.725-77.458,149.636-77.458
	s149.636,34.038,149.636,77.458S330.674,404.906,246.763,404.906z M246.763,267.594c-71.57,0-132.031,27.427-132.031,59.854
	s60.462,59.854,132.031,59.854s132.031-27.419,132.031-59.854S318.333,267.594,246.763,267.594z"/>
<g>
</g>
<g>
</g>
<g>
</g>
<g>
</g>
<g>
</g>
<g>
</g>
<g>
</g>
<g>
</g>
<g>
</g>
<g>
</g>
<g>
</g>
<g>
</g>
<g>
</g>
<g>
</g>
<g>
</g>
</svg>
