<?xml version="1.0" encoding="iso-8859-1"?>
<!-- Generator: Adobe Illustrator 19.0.0, SVG Export Plug-In . SVG Version: 6.00 Build 0)  -->
<svg version="1.1" id="Capa_1" xmlns="http://www.w3.org/2000/svg" xmlns:xlink="http://www.w3.org/1999/xlink" x="0px" y="0px"
	 viewBox="0 0 512.006 512.006" style="enable-background:new 0 0 512.006 512.006;" xml:space="preserve">
<g>
	<path style="fill:#FDFED2;" d="M342.525,34.139c-14.14-24.491-45.449-32.879-69.939-18.739c-3.063,1.766-5.931,3.849-8.567,6.204
		L190.06,174.939l174.933,30.575L342.525,34.139z"/>
	<path style="fill:#FDFED2;" d="M412.233,86.013c22.741-7.697,47.411,4.497,55.108,27.238c6.426,18.995-0.973,39.927-17.92,50.662
		l-51.712,33.783l-36.89-78.225L412.233,86.013z"/>
</g>
<g>
	<path style="fill:#FBD836;" d="M238.418,110.23c27.887-4.685,46.694-31.095,42.001-58.982
		c-4.693-27.887-31.095-46.694-58.982-42.001c-14.293,2.406-26.906,10.752-34.688,22.98c-24.636-13.884-55.859-5.163-69.743,19.473
		c-6.059,10.752-8.03,23.33-5.547,35.422l8.917,50.842L238.418,110.23z"/>
	<path style="fill:#FBD836;" d="M423.395,153.153c6.878-20.122,0.623-42.402-15.736-55.996
		c6.622-27.486-10.291-55.142-37.777-61.773S314.74,45.676,308.11,73.162c-0.956,3.994-1.434,8.081-1.425,12.177
		c0,0.99,0.111,1.954,0.162,2.927c-10.667,5.726-14.669,19.012-8.943,29.687c5.12,9.54,16.435,13.909,26.633,10.291
		c-0.495,2.739-0.751,5.513-0.785,8.294c-0.009,6.588,1.254,13.116,3.729,19.217l15.044,49.758L423.395,153.153z"/>
	<path style="fill:#FBD836;" d="M235.781,111.792c20.804-7.202,43.503,3.814,50.714,24.619c1.451,4.181,2.193,8.576,2.193,12.996
		l-33.203,70.332l-74.667-36.975L235.781,111.792z"/>
</g>
<g>
	<path style="fill:#C2A521;" d="M389.176,86.047H372.11c0.009-6.844-5.538-12.407-12.382-12.416
		c-6.844-0.009-12.407,5.538-12.416,12.382c0,0.009,0,0.017,0,0.026h-17.067c-0.009-16.273,13.167-29.474,29.44-29.491
		c16.273-0.009,29.474,13.167,29.491,29.44C389.176,86.021,389.176,86.038,389.176,86.047z"/>
	<path style="fill:#C2A521;" d="M257.422,59.38h-17.067c-0.009-6.844-5.564-12.39-12.407-12.39V29.923
		C244.221,29.94,257.405,43.116,257.422,59.38z"/>
</g>
<path style="fill:#FDFED2;" d="M229.671,156.635c15.812-23.441,9.634-55.262-13.815-71.074s-55.262-9.634-71.074,13.815
	c-2.705,4.011-4.83,8.38-6.306,12.988C128.073,92.797,106.202,82.215,84.4,86.201c-4.813-11.179-17.766-16.333-28.937-11.52
	c-11.17,4.813-16.324,17.775-11.511,28.945c1.186,2.765,2.935,5.257,5.12,7.313c-9.549,16.444-9.165,36.83,0.981,52.907
	l86.673,55.893L229.671,156.635z"/>
<path style="fill:#F09221;" d="M42.151,170.672L42.151,170.672c28.245-28.279,74.069-28.297,102.349-0.051
	c0.017,0.017,0.034,0.034,0.051,0.051l0,0c28.254-28.245,74.061-28.245,102.315,0l0,0l0,0
	c28.245-28.279,74.069-28.297,102.349-0.051c0.017,0.017,0.034,0.034,0.051,0.051l0,0l0.085-0.102
	c28.254-28.228,74.035-28.228,102.289,0l0.111,0.102l-34.133,332.8h-332.8L42.151,170.672z"/>
<g>
	
		<rect x="149.834" y="377.193" transform="matrix(-0.9987 0.0513 -0.0513 -0.9987 339.1166 872.0209)" style="fill:#B86F16;" width="17.067" height="126.338"/>
	
		<rect x="138.734" y="170.599" transform="matrix(-0.9987 0.0513 -0.0513 -0.9987 305.8326 440.1959)" style="fill:#B86F16;" width="17.067" height="106.848"/>
	
		<rect x="271.319" y="430.834" transform="matrix(-0.0518 0.9987 -0.9987 -0.0518 791.6924 127.0419)" style="fill:#B86F16;" width="128.432" height="17.067"/>
	
		<rect x="292.327" y="216.318" transform="matrix(-0.0518 0.9987 -0.9987 -0.0518 589.0915 -109.6246)" style="fill:#B86F16;" width="108.523" height="17.067"/>
	<rect x="238.333" y="172.123" style="fill:#B86F16;" width="17.067" height="84.011"/>
	<rect x="238.375" y="395.013" style="fill:#B86F16;" width="17.067" height="109.867"/>
</g>
<path style="fill:#C2A521;" d="M216.615,129.942h-17.067c0.179-6.844-5.222-12.544-12.066-12.723s-12.544,5.222-12.723,12.066
	c-0.009,0.213-0.009,0.435,0,0.649h-17.067c-0.273-16.273,12.689-29.687,28.962-29.961s29.687,12.689,29.961,28.962
	C216.624,129.277,216.624,129.61,216.615,129.942z"/>
<path style="fill:#B86F16;" d="M246.951,401.072c-81.348,0-145.067-32.99-145.067-75.093s63.718-75.093,145.067-75.093
	s145.067,32.998,145.067,75.093S328.3,401.072,246.951,401.072z M246.951,267.952c-69.385,0-128,26.59-128,58.027
	s58.615,58.027,128,58.027s128-26.581,128-58.027S316.336,267.952,246.951,267.952z"/>
<path d="M33.686,171.756l42.667,332.8c0.546,4.267,4.173,7.45,8.465,7.45h332.8c4.395,0.026,8.09-3.302,8.533-7.68l34.133-332.8
	c0.111-1.502-0.188-2.995-0.853-4.343c22.144-18.193,25.353-50.884,7.168-73.037c-12.032-14.643-31.087-21.572-49.715-18.057
	c-4.873-32.401-35.089-54.707-67.49-49.835c-0.58,0.085-1.169,0.188-1.749,0.29C329.477-0.797,292.588-8.229,265.247,9.947
	c-0.41,0.273-0.819,0.555-1.229,0.836C238.64-6.992,203.875-2.35,184.061,21.475c-30.532-12.425-65.348,2.253-77.773,32.785
	c-2.91,7.168-4.403,14.822-4.403,22.545c0,0.188,0,0.375,0,0.563c-4.301-0.606-8.661-0.734-12.988-0.384
	C78.964,63.34,59.849,60.327,46.196,70.26c-7.893,5.751-12.57,14.925-12.578,24.687c-0.017,6.11,1.818,12.083,5.274,17.126
	c-7.159,15.829-7.023,33.997,0.367,49.715c-1.05,0.947-2.133,1.843-3.14,2.85C34.249,166.508,33.353,169.136,33.686,171.756z
	 M92.327,494.939L51.171,173.906c24.371-21.478,60.996-21.171,85.009,0.7l5.12,99.507c-24.491,13.389-39.415,31.539-39.415,51.866
	c0,21.794,17.152,41.088,44.877,54.69l5.871,114.27H92.327z M169.725,494.939l-5.495-106.94c23.91,8.055,48.913,12.39,74.138,12.86
	l0.051,94.08H169.725z M118.951,325.979c0-31.454,58.615-58.027,128-58.027s128,26.59,128,58.027s-58.615,58.027-128,58.027
	S118.951,357.424,118.951,325.979z M153.247,174.256c11.648-10.487,26.769-16.282,42.445-16.256l0,0
	c15.77-0.034,30.985,5.82,42.667,16.418v76.655c-27.469,0.435-54.647,5.598-80.367,15.258L153.247,174.256z M246.098,118.346
	c0.93-0.085,1.843-0.23,2.79-0.23c14.848,0.017,27.648,10.462,30.652,25.003c-11.972,2.773-23.151,8.26-32.657,16.051
	c-2.005-1.647-4.096-3.157-6.229-4.591c4.13-8.252,6.289-17.348,6.298-26.573C246.934,124.771,246.644,121.537,246.098,118.346z
	 M298.057,158L298.057,158c15.718-0.017,30.882,5.803,42.547,16.341l-4.727,91.981c-25.754-9.668-52.983-14.822-80.486-15.249
	v-76.612C267.064,163.854,282.288,157.983,298.057,158z M324.144,494.939h-68.659v-94.08c25.259-0.444,50.304-4.779,74.24-12.851
	L324.144,494.939z M409.938,494.939h-68.702l5.871-114.27c27.75-13.602,44.911-32.905,44.911-54.69
	c0-20.326-14.942-38.477-39.432-51.866l5.12-99.584c24.124-21.794,60.757-22.007,85.137-0.512L409.938,494.939z M417.012,93.599
	c18.534-5.12,37.717,5.751,42.837,24.294c3.874,14.02-1.374,28.962-13.15,37.487c-4.156-2.893-8.567-5.393-13.193-7.45
	c4.036-19.601-2.202-39.91-16.538-53.871c0-0.188-0.009-0.307,0.017-0.461L417.012,93.599z M357.885,42.672
	c23.475-0.094,42.581,18.867,42.667,42.342c0.017,3.43-0.384,6.844-1.195,10.172c-0.751,3.157,0.358,6.46,2.85,8.533
	c9.771,8.098,15.42,20.13,15.411,32.819c-0.026,2.057-0.188,4.113-0.503,6.144c-23.945-5.026-48.879,1.033-67.849,16.486
	c-4.548-3.703-9.489-6.895-14.737-9.523c-1.434-4.224-2.193-8.644-2.244-13.107c0.026-2.304,0.256-4.608,0.666-6.878
	c0.785-4.651-2.347-9.054-6.989-9.839c-1.391-0.239-2.825-0.119-4.164,0.333c-1.365,0.503-2.807,0.777-4.267,0.802
	c-7.424,0.043-13.474-5.948-13.517-13.363c-0.026-4.941,2.662-9.498,6.997-11.87c2.859-1.596,4.557-4.693,4.361-7.962l-0.077-1.075
	c0-0.452-0.077-0.853-0.077-1.348C315.252,61.787,334.333,42.706,357.885,42.672z M276.818,22.883
	c17.826-10.445,40.593-6.502,53.862,9.344c-19.49,9.958-31.974,29.79-32.529,51.669c-13.047,10.65-14.993,29.867-4.335,42.914
	c5.299,6.494,13.039,10.522,21.402,11.127c0,1.707,0.384,3.337,0.563,5.001c-5.82-1.314-11.759-1.988-17.724-2.005l0,0
	c-0.538,0-1.067,0.051-1.596,0.068c-2.807-15.778-13.244-29.15-27.861-35.712c24.457-20.787,28.075-57.207,8.192-82.406
	L276.818,22.883z M161.618,34.139c7.339,0.009,14.541,1.911,20.932,5.513c3.951,2.236,8.951,0.99,11.392-2.833
	c12.587-19.883,38.921-25.796,58.803-13.21s25.796,38.921,13.21,58.803c-5.837,9.216-14.985,15.846-25.557,18.517
	c-14.976-29.397-50.944-41.088-80.341-26.112c-9.412,4.796-17.391,12.006-23.108,20.89c-4.975-5.299-10.863-9.66-17.391-12.86
	c-0.341-1.997-0.546-4.011-0.606-6.042C118.985,53.253,138.066,34.173,161.618,34.139z M54.951,104.718
	c-2.722-2.526-4.267-6.059-4.267-9.771c0-7.45,6.042-13.5,13.491-13.508c5.385,0,10.257,3.2,12.399,8.141
	c1.579,3.618,5.427,5.683,9.318,4.992c18.176-3.345,36.42,5.487,45.065,21.82c2.227,4.156,7.407,5.709,11.554,3.482
	c1.946-1.041,3.413-2.807,4.087-4.907c7.125-22.46,31.113-34.893,53.572-27.759c22.46,7.125,34.893,31.113,27.759,53.572
	c-0.64,2.022-1.434,3.994-2.372,5.897c-9.498-3.789-19.635-5.743-29.867-5.743l0,0c-18.671-0.06-36.77,6.391-51.2,18.236
	c-25.847-21.111-62.012-24.166-91.025-7.68c-4.582-11.921-3.49-25.276,2.978-36.284C58.45,111.792,57.827,107.449,54.951,104.718z"
	/>
<path d="M359.702,73.648c6.844,0.009,12.399,5.555,12.407,12.399h17.067c0.009-16.273-13.167-29.474-29.44-29.491
	c-16.273-0.009-29.474,13.167-29.491,29.44c0,0.017,0,0.026,0,0.043h17.067C347.329,79.212,352.867,73.665,359.702,73.648z"/>
<path d="M187.158,117.535c6.844,0.017,12.382,5.564,12.39,12.407h17.067c0.273-16.273-12.689-29.687-28.962-29.961
	s-29.687,12.689-29.961,28.962c-0.009,0.333-0.009,0.666,0,0.998h17.067C174.768,123.099,180.314,117.552,187.158,117.535z"/>
<path d="M240.355,59.38h17.067c-0.026-16.265-13.21-29.44-29.474-29.457V46.99C234.8,46.99,240.346,52.537,240.355,59.38z"/>
<g>
</g>
<g>
</g>
<g>
</g>
<g>
</g>
<g>
</g>
<g>
</g>
<g>
</g>
<g>
</g>
<g>
</g>
<g>
</g>
<g>
</g>
<g>
</g>
<g>
</g>
<g>
</g>
<g>
</g>
</svg>
