<?xml version="1.0" encoding="iso-8859-1"?>
<!-- Generator: Adobe Illustrator 19.0.0, SVG Export Plug-In . SVG Version: 6.00 Build 0)  -->
<svg version="1.1" id="Capa_1" xmlns="http://www.w3.org/2000/svg" xmlns:xlink="http://www.w3.org/1999/xlink" x="0px" y="0px"
	 viewBox="0 0 512 512" style="enable-background:new 0 0 512 512;" xml:space="preserve">
<path style="fill:#FFA300;" d="M490.08,172.47c0,8.4-2,16.32-5.55,23.33c-8.53,16.81-25.97,28.34-46.11,28.34l-353.14,0.33
	c-26.71,0-49.43-12.87-58.78-34.48c-2.96-6.81-4.58-14.5-4.58-22.92c0-27.41,17.33-50.77,41.63-59.72c-0.91-3.46-1.4-7.1-1.4-10.85
	c0-23.6,19.14-42.73,42.73-42.73c6.43,0,12.52,1.43,17.98,3.97c3.54-17.37,18.9-30.44,37.31-30.44c3.29,0,6.49,0.42,9.54,1.2
	c12.85-12.96,30.67-21,50.36-21c26.16,0,48.99,14.17,61.28,35.24c8.56-5.85,18.9-9.27,30.04-9.27c17.18,0,32.46,8.14,42.21,20.76
	c3.48-1.18,7.21-1.83,11.1-1.83c17.31,0,31.66,12.72,34.21,29.32c20.61,2.15,37,18.49,39.24,39.09c0.09-0.01,0.18-0.01,0.27-0.01
	C466.95,120.8,490.08,143.93,490.08,172.47z"/>
<path style="fill:#FFD400;" d="M484.53,195.8c-8.53,16.81-25.97,28.34-46.11,28.34l-353.14,0.33c-26.71,0-49.43-12.87-58.78-34.48
	c6.69-16.62,20.19-29.76,37.05-35.97c-0.91-3.47-1.4-7.11-1.4-10.86c0-23.6,19.14-42.73,42.73-42.73c6.43,0,12.52,1.43,17.98,3.97
	c3.54-17.37,18.9-30.44,37.31-30.44c3.29,0,6.49,0.42,9.54,1.21c12.85-12.97,30.67-21.01,50.36-21.01
	c26.16,0,48.99,14.17,61.28,35.24c8.56-5.85,18.9-9.27,30.04-9.27c17.18,0,32.46,8.14,42.21,20.77c3.48-1.18,7.21-1.83,11.1-1.83
	c17.31,0,31.66,12.71,34.21,29.31c20.61,2.16,37,18.5,39.24,39.09c0.09,0,0.18-0.01,0.27-0.01
	C458.56,167.46,476.01,178.99,484.53,195.8z"/>
<g>
	<circle style="fill:#FFA300;" cx="236.34" cy="122.69" r="30.809"/>
	<circle style="fill:#FFA300;" cx="264.13" cy="149.82" r="21.566"/>
</g>
<polygon style="fill:#D36900;" points="457.09,224.47 396.71,504.5 116.53,504.5 63.72,259.63 56.14,224.47 "/>
<path style="fill:#FF8700;" d="M318.841,277.637H67.603L116.53,504.5h209.59l28.546-132.364
	C362.763,334.594,347.043,298.422,318.841,277.637z"/>
<polygon style="fill:#FFA300;" points="406.98,224.47 361.69,504.5 151.54,504.5 112.97,266.03 106.25,224.47 "/>
<path style="fill:#FFD400;" d="M287.514,277.637H114.847L151.54,504.5h154.27l22.639-139.975
	C334.287,328.433,316.568,294.691,287.514,277.637z"/>
<polygon style="fill:#D36900;" points="343.25,224.47 317.16,504.5 196.08,504.5 174.36,271.43 169.98,224.47 "/>
<path style="fill:#FF8700;" d="M280.713,277.637H174.938L196.08,504.5h94.47l16.524-177.396
	C309.035,306.053,297.934,287.04,280.713,277.637z"/>
<polygon style="fill:#FFA300;" points="286.72,224.47 277.65,504.5 235.58,504.5 228.22,277.28 226.51,224.47 "/>
<path style="fill:#FFD400;" d="M234.59,277.637h-6.358L235.58,504.5h17.68l6.36-196.602
	C260.111,292.72,249.126,279.905,234.59,277.637z"/>
<path style="fill:#D36900;" d="M106.247,224.465H56.141v-13.808c0-5.254,2.272-10.06,6.034-13.757
	c4.595-4.516,11.411-7.378,19.019-7.378l0,0c13.836,0,25.053,9.462,25.053,21.135V224.465z"/>
<path style="fill:#FF8700;" d="M169.981,224.465h-63.734v-8.06c0-9.548,5.901-17.934,14.793-22.703
	c4.935-2.647,10.792-4.18,17.074-4.18l0,0c7.219,0,13.877,2.025,19.219,5.438c7.684,4.908,12.647,12.688,12.647,21.445v8.06H169.981
	z"/>
<g>
	<path style="fill:#D36900;" d="M226.51,224.465h-56.529v-11.099c0-7.742,4.374-14.623,11.151-18.978
		c4.75-3.053,10.681-4.866,17.113-4.866l0,0c6.406,0,12.315,1.798,17.055,4.828c6.81,4.354,11.209,11.251,11.209,19.016v11.099
		H226.51z"/>
	<path style="fill:#D36900;" d="M406.984,224.465h50.106v-13.808c0-5.764-2.735-10.988-7.169-14.801
		c-4.546-3.909-10.879-6.334-17.884-6.334l0,0c-13.836,0-25.053,9.462-25.053,21.135L406.984,224.465L406.984,224.465z"/>
</g>
<path style="fill:#FF8700;" d="M343.25,224.465h63.734v-8.06c0-14.847-14.267-26.883-31.867-26.883l0,0
	c-5.994,0-11.602,1.396-16.392,3.824c-9.272,4.701-15.475,13.269-15.475,23.059V224.465z"/>
<path style="fill:#D36900;" d="M286.72,224.465h56.529v-11.099c0-8.23-4.943-15.487-12.462-19.772
	c-4.511-2.571-9.949-4.072-15.803-4.072l0,0c-5.708,0-11.02,1.427-15.464,3.882c-7.709,4.258-12.801,11.609-12.801,19.962v11.099
	H286.72z"/>
<path style="fill:#FF8700;" d="M286.72,224.465h-60.21v-9.546c0-8.609,5.077-16.217,12.844-20.81
	c4.887-2.89,10.84-4.587,17.261-4.587l0,0c5.342,0,10.359,1.174,14.708,3.232c9.188,4.348,15.397,12.645,15.397,22.165V224.465z"/>
<path style="fill:#BCBCBC;" d="M330.2,364.48c0,39.84-32.29,72.13-72.12,72.13c-5.58,0-11.01-0.63-16.23-1.84
	c-32.02-7.36-55.9-36.03-55.9-70.29c0-34.25,23.88-62.93,55.9-70.28c5.22-1.21,10.65-1.84,16.23-1.84
	C297.91,292.36,330.2,324.65,330.2,364.48z"/>
<path style="fill:#FFFFFF;" d="M297.75,364.48c0,34.26-23.88,62.94-55.9,70.29c-32.02-7.36-55.9-36.03-55.9-70.29
	c0-34.25,23.88-62.93,55.9-70.28C273.87,301.55,297.75,330.23,297.75,364.48z"/>
<g>
	<path style="fill:#020202;" d="M497.584,172.467c0-30.556-23.286-55.776-53.043-58.852c-3.187-16.351-14.757-29.736-30.042-35.484
		c-3.003-1.29-6.146-2.308-9.402-3.009c-5.206-17.562-21.685-30.217-40.399-30.217c-2.841,0-5.661,0.286-8.43,0.853
		c-11.515-12.638-27.605-19.79-44.881-19.79c-9.714,0-19.151,2.283-27.679,6.655C269.064,12.332,245.316,0,220.074,0
		c-19.691,0-38.252,7.2-52.711,20.364c-0.044-0.007-0.089-0.012-0.134-0.019c-2.896-0.637-5.893-0.975-8.952-0.975
		c-12.358,0-24.02,5.423-31.994,14.879l0.359,0.303l-0.001,0.001l-0.359-0.303c-1.84,2.182-3.432,4.541-4.777,7.024
		c-1.334,2.13-2.505,4.378-3.479,6.734c-4.257-1.157-8.652-1.74-13.142-1.74c-27.697,0-50.231,22.533-50.231,50.23
		c0,2.109,0.132,4.214,0.395,6.301c-6.966,3.313-13.249,7.708-18.679,12.93C26.22,125,18.945,137.416,16.147,151.562
		c-1.133,5.027-1.731,10.221-1.731,15.506c0,24.884,13.059,45.244,33.79,56.176l0.436,2.021v6.699h1.444L110.471,512h34.684h44.088
		h39.075h56.596h39.076h44.088h34.685l60.384-280.035h1.444v-6.452C484.12,215.837,497.584,195.699,497.584,172.467z
		 M98.747,216.405v0.547l-13.464,0.012c-7.839,0-15.106-1.177-21.642-3.35v-2.957c0-3.87,2.062-6.709,3.79-8.408
		c3.38-3.321,8.396-5.226,13.763-5.226c9.679,0,17.553,6.116,17.553,13.635C98.747,210.658,98.747,216.405,98.747,216.405z
		 M124.584,200.311c4.014-2.151,8.692-3.289,13.53-3.289c5.571,0,10.821,1.473,15.183,4.258c5.837,3.729,9.184,9.241,9.184,15.125
		v0.487l-48.734,0.046v-0.533C113.747,209.968,117.799,203.951,124.584,200.311z M219.011,214.919v1.921l-41.529,0.039v-0.473
		v-3.039c0-4.903,2.809-9.521,7.705-12.669c3.741-2.404,8.257-3.675,13.06-3.675c4.782,0,9.282,1.261,13.016,3.647
		c4.925,3.148,7.749,7.775,7.749,12.696L219.011,214.919L219.011,214.919z M243.172,200.564c3.918-2.317,8.567-3.542,13.443-3.542
		c4.052,0,8.029,0.868,11.5,2.511c6.851,3.242,11.105,9.138,11.105,15.386v1.865l-45.21,0.042v-1.907
		C234.011,209.323,237.436,203.957,243.172,200.564z M335.75,216.405v0.325l-41.529,0.039v-1.851v-1.553
		c0-5.302,3.337-10.31,8.928-13.397c3.489-1.928,7.582-2.946,11.837-2.946c4.364,0,8.545,1.067,12.09,3.089
		c5.432,3.095,8.675,8.05,8.675,13.255v3.039H335.75z M362.115,200.036c3.891-1.972,8.387-3.014,13.002-3.014
		c13.436,0,24.366,8.695,24.366,19.383v0.266l-48.733,0.046v-0.311C350.75,209.765,354.999,203.645,362.115,200.036z M449.59,215.2
		c-3.571,0.934-7.314,1.435-11.174,1.435l-23.933,0.022v-0.252v-5.748c0-7.518,7.875-13.635,17.554-13.635
		c4.916,0,9.652,1.647,12.993,4.52c2.94,2.528,4.56,5.766,4.56,9.115V215.2z M321.535,376.665
		c-5.715,29.828-31.988,52.443-63.458,52.443c-35.635,0-64.626-28.991-64.626-64.626s28.991-64.625,64.626-64.625
		c35.544,0,64.47,28.844,64.618,64.353L321.535,376.665z M178.213,231.965h40.798h0.239l2.006,61.952
		c-14.602,7.651-26.542,19.695-34.067,34.372L178.213,231.965z M258.077,284.857c-7.634,0-15.011,1.102-22.006,3.117l-1.814-56.01
		h44.716l-1.788,55.226C271.06,285.676,264.664,284.857,258.077,284.857z M292.022,292.475l1.96-60.51h0.239h40.798l-8.554,91.793
		C318.368,310.212,306.367,299.264,292.022,292.475z M122.581,497L65.432,231.965h33.315h1.115L142.728,497H122.581z M157.924,497
		l-42.866-265.035h47.424h0.666L187.844,497H157.924z M202.91,497l-7.817-83.885c8.058,10.412,18.63,18.775,30.805,24.177
		L227.832,497H202.91z M242.839,497l-1.772-54.74c5.485,1.199,11.172,1.848,17.011,1.848c4.802,0,9.498-0.451,14.068-1.27
		L270.392,497H242.839z M285.399,497l1.893-58.468c11.795-4.67,22.214-12.072,30.474-21.432L310.32,497H285.399z M325.387,497
		l11.029-118.357c0.801-4.443,1.246-9.007,1.274-13.671l12.394-133.007h0.666h47.423L355.308,497H325.387z M390.651,497h-20.148
		l42.865-265.035h1.116H447.8L390.651,497z M464.457,208.111c-0.673-6.818-4.034-13.115-9.648-17.943
		c-6.11-5.253-14.197-8.145-22.772-8.145c-11.068,0-20.858,4.888-26.743,12.335c-7.227-7.533-18.07-12.335-30.177-12.335
		c-6.96,0-13.801,1.602-19.784,4.635c-4.376,2.219-8.142,5.138-11.178,8.53c-2.565-3.161-5.817-5.922-9.653-8.108
		c-5.803-3.309-12.552-5.057-19.517-5.057c-6.786,0-13.388,1.666-19.09,4.816c-3.808,2.104-7.049,4.764-9.639,7.815
		c-3.131-3.509-7.09-6.486-11.725-8.679c-5.465-2.586-11.66-3.952-17.916-3.952c-7.561,0-14.85,1.947-21.079,5.631
		c-3.311,1.958-6.189,4.337-8.58,7.02c-2.123-2.514-4.677-4.764-7.615-6.643c-6.149-3.931-13.444-6.009-21.095-6.009
		c-7.684,0-15.003,2.094-21.17,6.057c-3.112,2.001-5.784,4.423-7.972,7.132c-2.203-2.467-4.789-4.691-7.732-6.571
		c-6.777-4.329-14.819-6.617-23.258-6.617c-7.303,0-14.433,1.753-20.619,5.07c-3.692,1.98-6.914,4.423-9.599,7.214
		c-5.889-7.418-15.659-12.285-26.701-12.285c-9.267,0-18.115,3.473-24.277,9.528c-4.216,4.145-6.928,9.251-7.884,14.7
		c-12.294-8.84-19.617-22.598-19.617-39.182c0-3.042,0.254-6.045,0.736-8.988l0.112,0.014c0.141-1.136,0.331-2.255,0.545-3.365
		c2.472-10.875,8.141-20.745,16.13-28.355c9.075-8.087,21.02-12.961,33.967-12.961c3.322,0,6.642,0.32,9.867,0.951l2.881-14.721
		c-4.173-0.816-8.462-1.23-12.748-1.23c-3.784,0-7.497,0.337-11.122,0.956c-0.077-0.954-0.131-1.911-0.131-2.87
		c0-19.426,15.805-35.23,35.231-35.23c3.998,0,7.887,0.667,11.606,1.971c0.476,9.894,4.412,19.245,11.209,26.52l10.961-10.24
		c-4.655-4.984-7.22-11.488-7.22-18.313c0-4.422,1.118-8.743,3.169-12.599c5.53-8.389,15.049-13.81,25.561-13.81
		c1.382,0,2.757,0.099,4.118,0.282c10.088,2.331,18.214,10.369,20.305,20.837l14.709-2.938c-2.13-10.669-8.278-19.729-16.667-25.746
		C193.434,19.295,206.416,15,220.074,15c22.458,0,43.455,12.076,54.799,31.516l4.059,6.956l6.65-4.544
		c7.621-5.208,16.545-7.961,25.806-7.961c14.294,0,27.516,6.506,36.274,17.851l3.271,4.236l5.069-1.716
		c2.81-0.951,5.735-1.434,8.695-1.434c10.765,0,20.379,6.498,24.696,15.94c-21.333,3.799-37.912,21.82-39.189,44.141l14.975,0.857
		c0.987-17.242,15.306-30.749,32.598-30.749c3.935,0,7.71,0.7,11.206,1.981c10.525,4.654,18.499,14.144,21.049,25.598
		c0.259,1.653,0.396,3.347,0.396,5.072c0,17.151-13.388,31.463-30.479,32.58l0.979,14.969c22.91-1.499,41.251-19.232,44.102-41.497
		c21.228,3.202,37.553,21.564,37.553,43.67C482.584,187.089,475.436,200.068,464.457,208.111z"/>
	<path style="fill:#020202;" d="M274.742,124.302c0-0.069,0.004-0.137,0.004-0.206c0-21.18-17.232-38.411-38.411-38.411
		c-21.18,0-38.411,17.231-38.411,38.411v0.114h15v-0.114c0-12.909,10.502-23.411,23.411-23.411c12.416,0,22.6,9.716,23.36,21.943
		c-2.452,0.394-4.869,1.104-7.197,2.145c-6.981,3.123-12.329,8.778-15.058,15.923s-2.511,14.925,0.611,21.906l0.018,0.042
		l6.859-3.033l2.524-1.137l4.367-1.819l-0.076-0.178c-3.069-6.862,0.016-14.941,6.878-18.011c3.324-1.488,7.029-1.59,10.43-0.291
		c3.402,1.299,6.095,3.846,7.581,7.169c0.622,1.392,1.006,2.855,1.14,4.351l14.939-1.336c-0.281-3.153-1.084-6.228-2.386-9.139
		C287.254,132.352,281.726,127.07,274.742,124.302z"/>
</g>
<g>
</g>
<g>
</g>
<g>
</g>
<g>
</g>
<g>
</g>
<g>
</g>
<g>
</g>
<g>
</g>
<g>
</g>
<g>
</g>
<g>
</g>
<g>
</g>
<g>
</g>
<g>
</g>
<g>
</g>
</svg>
